<svg width="612" height="166" viewBox="0 0 612 166" fill="none" xmlns="http://www.w3.org/2000/svg">
<path d="M103.1 62.9621C107.3 67.1595 110.1 72.6562 111 78.5527L123.1 66.46L153.5 36.0783L130 12.5924L99.6 42.8742V0H66.4V60.0638C77.7 51.9687 93.2 53.168 103.1 62.9621Z" fill="#641BFF"/>
<path d="M111 87.4473C108.6 102.838 94.1 113.432 78.7 110.933C74.3 110.234 70.1 108.535 66.5 105.836V165.9H99.7V123.026L130.1 153.408L153.6 129.922L123.2 99.54L111 87.4473Z" fill="#641BFF"/>
<path d="M111 87.4473C108.5 102.838 94 113.432 78.5 110.933C63.1 108.435 52.5 93.9434 55 78.4527C56 72.5563 58.8 67.0596 62.9 62.8621C64 61.7628 65.1 60.8633 66.3 59.9639C78.9 50.7694 96.6 53.5677 105.8 66.1601C108.4 69.758 110.2 73.9554 110.9 78.4527L123 66.36L153.4 35.9783L130 12.5924L99.6 42.8742V0H66.4V42.8742L36.1 12.5924L12.6 36.0783L43 66.46H0V99.64H42.9L12.6 129.922L36.1 153.408L66.5 123.026V165.9H99.7V123.026L130.1 153.408L153.6 129.922L123.2 99.54L111 87.4473ZM104.2 47.3715L130.1 21.4871L144.6 35.9783L118.7 61.9627L113.8 66.8597C112.1 63.7616 110.1 60.9633 107.6 58.4648C105.1 55.9663 102.3 53.8675 99.3 52.2685L104.2 47.3715ZM93.3 6.39615V49.9699C86.6 47.9711 79.5 47.9711 72.8 49.9699V6.29621C72.8 6.29621 93.3 6.29621 93.3 6.39615ZM21.6 36.0783L36.1 21.587L60.1 45.5725V56.9657C59.5 57.4654 59 57.9651 58.5 58.4648C56 60.9633 53.9 63.7616 52.3 66.8597L47.4 61.9627L21.6 36.0783ZM6.4 93.2438V72.7562H50C48 79.4521 48 86.5479 50 93.2438C49.9 93.2438 6.3 93.2438 6.4 93.2438ZM60.1 120.427L36 144.413L21.5 129.922L47.4 104.137L52.3 99.2402C54 102.338 56 105.137 58.5 107.535C59 108.035 59.5 108.535 60.1 109.034V120.427ZM93.3 123.026V159.604H72.7V116.03C79.4 118.029 86.5 118.029 93.2 116.03L93.3 123.026ZM130 144.413L104.2 118.529L99.3 113.632C105.5 110.334 110.5 105.337 113.8 99.1403L118.7 104.037L144.6 129.922L130 144.413Z" fill="black"/>
<path d="M331.054 130V102.929H337.918V109.957L336.435 111.11C336.692 109.39 337.131 107.962 337.753 106.827C338.376 105.692 339.108 104.814 339.95 104.191C340.828 103.533 341.725 103.075 342.64 102.819C343.592 102.526 344.526 102.379 345.441 102.379C346.869 102.379 348.223 102.654 349.504 103.203C350.786 103.716 351.902 104.612 352.854 105.894C353.806 107.175 354.465 108.932 354.831 111.165L350.767 112.648C351.316 110.085 352.103 108.054 353.128 106.553C354.19 105.052 355.398 103.99 356.753 103.368C358.144 102.709 359.608 102.379 361.146 102.379C363.452 102.379 365.319 102.892 366.747 103.917C368.174 104.942 369.218 106.26 369.877 107.871C370.572 109.445 370.92 111.129 370.92 112.922V130H364.111V114.57C364.111 113.215 363.928 112.08 363.562 111.165C363.232 110.213 362.738 109.5 362.079 109.024C361.42 108.548 360.56 108.31 359.498 108.31C358.4 108.31 357.467 108.603 356.698 109.188C355.929 109.774 355.343 110.653 354.941 111.824C354.574 112.996 354.391 114.497 354.391 116.327V130H347.582V114.46C347.582 112.41 347.198 110.872 346.429 109.847C345.697 108.822 344.617 108.31 343.189 108.31C342.055 108.31 341.085 108.603 340.279 109.188C339.51 109.774 338.925 110.653 338.522 111.824C338.119 112.996 337.918 114.497 337.918 116.327V130H331.054Z" fill="black"/>
<path d="M309.614 130.549C307.417 130.549 305.568 130.11 304.068 129.231C302.603 128.353 301.505 127.108 300.773 125.497C300.077 123.886 299.729 122.001 299.729 119.841V102.928H306.539V118.139C306.539 119.384 306.685 120.5 306.978 121.489C307.271 122.44 307.783 123.209 308.515 123.795C309.284 124.344 310.327 124.619 311.645 124.619C313.256 124.619 314.464 124.161 315.27 123.246C316.111 122.331 316.679 121.068 316.972 119.457C317.301 117.81 317.466 115.888 317.466 113.691V102.928H324.275V130H317.466V124.124L318.399 124.674C317.594 126.76 316.404 128.261 314.83 129.176C313.256 130.091 311.517 130.549 309.614 130.549Z" fill="black"/>
<path d="M286.544 130V102.929H293.353V130H286.544ZM286.325 98.7553V91.7266H293.628V98.7553H286.325Z" fill="black"/>
<path d="M269.331 141.751C265.305 141.751 262.12 141.037 259.777 139.61C257.471 138.182 256.317 136.205 256.317 133.679C256.317 133.459 256.336 133.185 256.372 132.855C256.409 132.563 256.464 132.27 256.537 131.977L264.115 127.254L265.817 129.176L262.358 133.405C262.321 133.514 262.303 133.606 262.303 133.679C262.303 133.752 262.303 133.826 262.303 133.899C262.303 134.924 262.943 135.711 264.225 136.26C265.506 136.809 267.208 137.084 269.331 137.084C271.125 137.084 272.498 136.846 273.45 136.37C274.402 135.931 274.878 135.272 274.878 134.393C274.878 133.917 274.749 133.533 274.493 133.24C274.237 132.947 273.816 132.709 273.23 132.526C272.644 132.343 271.876 132.178 270.924 132.032C270.009 131.885 268.892 131.721 267.574 131.538C265.89 131.355 264.243 131.007 262.632 130.494C261.021 130.018 259.685 129.304 258.624 128.353C257.562 127.364 257.031 126.065 257.031 124.454C257.031 123.026 257.525 121.727 258.514 120.555C259.502 119.347 260.802 118.359 262.413 117.59L265.707 120.226C264.719 120.372 263.968 120.702 263.456 121.214C262.98 121.727 262.742 122.331 262.742 123.026C262.742 123.612 262.98 124.088 263.456 124.454C263.932 124.783 264.609 125.04 265.488 125.223C266.366 125.406 267.41 125.57 268.618 125.717C270.485 125.973 272.205 126.248 273.779 126.541C275.39 126.833 276.781 127.254 277.953 127.804C279.161 128.316 280.076 129.03 280.698 129.945C281.357 130.86 281.687 132.05 281.687 133.514C281.687 136.187 280.607 138.218 278.447 139.61C276.324 141.037 273.285 141.751 269.331 141.751ZM268.782 122.422C266.513 122.422 264.518 122.001 262.797 121.159C261.113 120.281 259.795 119.109 258.843 117.645C257.892 116.144 257.416 114.423 257.416 112.483C257.416 110.47 257.91 108.713 258.898 107.212C259.923 105.674 261.278 104.484 262.962 103.642C264.682 102.8 266.549 102.379 268.563 102.379C270.54 102.379 272.37 102.8 274.054 103.642C275.774 104.484 277.147 105.692 278.172 107.267C279.234 108.804 279.765 110.616 279.765 112.703C279.765 114.68 279.289 116.4 278.337 117.865C277.422 119.292 276.141 120.409 274.493 121.214C272.846 122.02 270.942 122.422 268.782 122.422ZM268.618 117.041C270.082 117.041 271.162 116.602 271.857 115.723C272.59 114.808 272.956 113.71 272.956 112.428C272.956 111.11 272.571 110.049 271.802 109.243C271.034 108.401 269.972 107.98 268.618 107.98C267.263 107.98 266.183 108.401 265.378 109.243C264.609 110.085 264.225 111.147 264.225 112.428C264.225 113.71 264.591 114.808 265.323 115.723C266.055 116.602 267.153 117.041 268.618 117.041ZM277.898 108.639L273.011 105.454L279.27 100.458L282.73 104.686L277.898 108.639Z" fill="black"/>
<path d="M248.942 130.549C247.075 130.549 245.537 129.982 244.329 128.847C243.121 127.712 242.517 125.918 242.517 123.466V91.7266H249.271V122.148C249.271 122.916 249.454 123.466 249.82 123.795C250.186 124.088 250.662 124.234 251.248 124.234C251.541 124.234 251.852 124.216 252.181 124.179C252.511 124.106 252.859 124.015 253.225 123.905V129.725C252.456 130.018 251.687 130.22 250.918 130.33C250.186 130.476 249.527 130.549 248.942 130.549Z" fill="black"/>
<path d="M224.999 130.549C222.656 130.549 220.643 130.165 218.959 129.396C217.275 128.627 215.884 127.602 214.786 126.321C213.724 125.003 212.937 123.52 212.425 121.873C211.912 120.189 211.656 118.432 211.656 116.602C211.656 114.844 211.912 113.124 212.425 111.44C212.937 109.756 213.706 108.237 214.731 106.882C215.756 105.528 217.074 104.448 218.684 103.642C220.332 102.8 222.29 102.379 224.56 102.379C226.683 102.379 228.532 102.745 230.106 103.478C231.68 104.173 232.98 105.162 234.005 106.443C235.03 107.688 235.799 109.152 236.311 110.836C236.86 112.52 237.135 114.314 237.135 116.217C237.135 116.473 237.117 116.839 237.08 117.315C237.08 117.755 237.043 118.231 236.97 118.743H218.465C218.648 120.683 219.362 122.148 220.606 123.136C221.888 124.124 223.48 124.619 225.384 124.619C226.775 124.619 228.129 124.381 229.447 123.905C230.765 123.392 231.936 122.678 232.962 121.763L236.366 126.376C235.085 127.364 233.877 128.17 232.742 128.792C231.607 129.414 230.417 129.854 229.173 130.11C227.965 130.403 226.573 130.549 224.999 130.549ZM230.381 115.339C230.454 115.046 230.509 114.753 230.545 114.46C230.619 114.167 230.655 113.893 230.655 113.636C230.655 112.868 230.509 112.154 230.216 111.495C229.923 110.799 229.52 110.195 229.008 109.683C228.495 109.17 227.873 108.786 227.141 108.53C226.445 108.237 225.64 108.09 224.725 108.09C223.37 108.09 222.235 108.365 221.32 108.914C220.405 109.463 219.709 110.177 219.234 111.055C218.794 111.897 218.52 112.776 218.41 113.691H232.687L230.381 115.339Z" fill="black"/>
<path d="M179.679 130V91.7266H193.132C196.94 91.7266 199.923 92.5868 202.083 94.3074C204.243 95.9914 205.323 98.3526 205.323 101.391C205.323 103.148 204.957 104.722 204.225 106.113C203.492 107.468 202.467 108.53 201.15 109.298C203.273 110.104 204.847 111.312 205.872 112.922C206.897 114.497 207.41 116.455 207.41 118.798C207.41 122.312 206.293 125.058 204.06 127.035C201.863 129.012 198.807 130 194.89 130H179.679ZM186.763 123.466H194.341C198.331 123.466 200.326 121.8 200.326 118.469C200.326 116.858 199.832 115.613 198.843 114.735C197.891 113.856 196.519 113.417 194.725 113.417H186.763V123.466ZM186.763 107.102H193.462C194.926 107.102 196.079 106.699 196.921 105.894C197.8 105.052 198.239 103.917 198.239 102.489C198.239 101.135 197.8 100.091 196.921 99.3593C196.043 98.6271 194.78 98.2611 193.132 98.2611H186.763V107.102Z" fill="black"/>
<path d="M583.32 75.5491C580.977 75.5491 578.964 75.1647 577.28 74.396C575.596 73.6272 574.205 72.6022 573.106 71.3209C572.045 70.003 571.258 68.5204 570.745 66.8731C570.233 65.1891 569.976 63.4319 569.976 61.6015C569.976 59.8444 570.233 58.1238 570.745 56.4398C571.258 54.7559 572.026 53.2366 573.051 51.8822C574.076 50.5277 575.394 49.4477 577.005 48.6424C578.652 47.8004 580.611 47.3794 582.881 47.3794C585.004 47.3794 586.853 47.7455 588.427 48.4776C590.001 49.1732 591.3 50.1616 592.325 51.4429C593.35 52.6875 594.119 54.1518 594.632 55.8358C595.181 57.5198 595.455 59.3135 595.455 61.2172C595.455 61.4734 595.437 61.8395 595.4 62.3154C595.4 62.7547 595.364 63.2306 595.291 63.7431H576.785C576.968 65.6833 577.682 67.1476 578.927 68.136C580.208 69.1244 581.801 69.6187 583.704 69.6187C585.095 69.6187 586.45 69.3807 587.768 68.9048C589.086 68.3923 590.257 67.6784 591.282 66.7632L594.687 71.3758C593.405 72.3642 592.197 73.1696 591.062 73.7919C589.928 74.4143 588.738 74.8536 587.493 75.1098C586.285 75.4027 584.894 75.5491 583.32 75.5491ZM588.701 60.3386C588.774 60.0457 588.829 59.7528 588.866 59.46C588.939 59.1671 588.976 58.8926 588.976 58.6363C588.976 57.8675 588.829 57.1537 588.536 56.4947C588.244 55.7992 587.841 55.1952 587.328 54.6827C586.816 54.1701 586.194 53.7858 585.461 53.5295C584.766 53.2366 583.961 53.0902 583.045 53.0902C581.691 53.0902 580.556 53.3648 579.641 53.9139C578.726 54.463 578.03 55.1769 577.554 56.0554C577.115 56.8974 576.84 57.776 576.73 58.6912H591.008L588.701 60.3386Z" fill="black"/>
<path d="M554.615 86.7512C550.588 86.7512 547.403 86.0373 545.061 84.6096C542.754 83.1819 541.601 81.2051 541.601 78.6791C541.601 78.4595 541.619 78.1849 541.656 77.8555C541.693 77.5626 541.748 77.2697 541.821 76.9769L549.399 72.2545L551.101 74.1764L547.641 78.4046C547.605 78.5144 547.586 78.6059 547.586 78.6791C547.586 78.7523 547.586 78.8256 547.586 78.8988C547.586 79.9238 548.227 80.7109 549.508 81.26C550.79 81.8091 552.492 82.0837 554.615 82.0837C556.409 82.0837 557.782 81.8457 558.734 81.3698C559.685 80.9305 560.161 80.2716 560.161 79.393C560.161 78.9171 560.033 78.5327 559.777 78.2398C559.521 77.947 559.1 77.709 558.514 77.526C557.928 77.3429 557.159 77.1782 556.208 77.0318C555.292 76.8853 554.176 76.7206 552.858 76.5376C551.174 76.3545 549.527 76.0068 547.916 75.4942C546.305 75.0183 544.969 74.3045 543.907 73.3527C542.846 72.3643 542.315 71.0647 542.315 69.454C542.315 68.0262 542.809 66.7267 543.798 65.5552C544.786 64.3472 546.086 63.3588 547.696 62.59L550.991 65.2257C550.003 65.3722 549.252 65.7016 548.74 66.2142C548.264 66.7267 548.026 67.3307 548.026 68.0262C548.026 68.612 548.264 69.0879 548.74 69.454C549.215 69.7834 549.893 70.0397 550.771 70.2227C551.65 70.4058 552.693 70.5705 553.901 70.7169C555.768 70.9732 557.489 71.2477 559.063 71.5406C560.674 71.8335 562.065 72.2545 563.236 72.8036C564.444 73.3161 565.36 74.0299 565.982 74.9451C566.641 75.8603 566.97 77.0501 566.97 78.5144C566.97 81.1868 565.89 83.2185 563.73 84.6096C561.607 86.0373 558.569 86.7512 554.615 86.7512ZM554.066 67.4222C551.796 67.4222 549.801 67.0012 548.081 66.1593C546.397 65.2807 545.079 64.1092 544.127 62.6449C543.175 61.144 542.699 59.4234 542.699 57.4832C542.699 55.4698 543.194 53.7126 544.182 52.2117C545.207 50.6741 546.561 49.4844 548.245 48.6424C549.966 47.8004 551.833 47.3794 553.846 47.3794C555.823 47.3794 557.654 47.8004 559.338 48.6424C561.058 49.4844 562.431 50.6924 563.456 52.2666C564.518 53.8041 565.048 55.6162 565.048 57.7028C565.048 59.6797 564.573 61.4002 563.621 62.8645C562.706 64.2923 561.424 65.4088 559.777 66.2142C558.13 67.0195 556.226 67.4222 554.066 67.4222ZM553.901 62.0409C555.366 62.0409 556.446 61.6016 557.141 60.723C557.873 59.8078 558.239 58.7096 558.239 57.4283C558.239 56.1104 557.855 55.0488 557.086 54.2434C556.317 53.4014 555.256 52.9804 553.901 52.9804C552.547 52.9804 551.467 53.4014 550.662 54.2434C549.893 55.0854 549.508 56.147 549.508 57.4283C549.508 58.7096 549.874 59.8078 550.607 60.723C551.339 61.6016 552.437 62.0409 553.901 62.0409ZM563.181 53.6394L558.294 50.4545L564.554 45.4575L568.014 49.6857L563.181 53.6394Z" fill="black"/>
<path d="M521.931 75.5492C519.551 75.5492 517.501 74.9451 515.781 73.7371C514.06 72.4924 512.724 70.8085 511.772 68.6852C510.857 66.5253 510.399 64.1092 510.399 61.4368C510.399 58.4716 510.912 55.9457 511.937 53.859C512.998 51.7724 514.408 50.1799 516.165 49.0817C517.922 47.9469 519.844 47.3794 521.931 47.3794C523.395 47.3794 524.749 47.6906 525.994 48.3129C527.275 48.8987 528.374 49.7956 529.289 51.0036C530.204 52.2117 530.808 53.7492 531.101 55.6162L529.728 55.2318V36.7266H536.482V75H529.728V67.7517L531.321 66.9829C530.881 69.1062 530.167 70.8085 529.179 72.0897C528.227 73.3344 527.111 74.2313 525.829 74.7804C524.585 75.2929 523.285 75.5492 521.931 75.5492ZM523.798 69.2892C525.152 69.2892 526.305 68.9598 527.257 68.3008C528.245 67.6419 528.996 66.7267 529.508 65.5552C530.058 64.3838 530.332 63.011 530.332 61.4368C530.332 59.8627 530.058 58.4899 529.508 57.3185C528.996 56.147 528.245 55.2501 527.257 54.6278C526.305 53.9689 525.152 53.6394 523.798 53.6394C522.48 53.6394 521.327 53.9689 520.338 54.6278C519.35 55.2501 518.581 56.147 518.032 57.3185C517.519 58.4533 517.263 59.8261 517.263 61.4368C517.263 63.0476 517.519 64.4387 518.032 65.6101C518.581 66.7816 519.35 67.6968 520.338 68.3557C521.327 68.9781 522.48 69.2892 523.798 69.2892Z" fill="black"/>
<path d="M494.035 75.5491C491.692 75.5491 489.678 75.1647 487.994 74.396C486.31 73.6272 484.919 72.6022 483.821 71.3209C482.76 70.003 481.972 68.5204 481.46 66.8731C480.947 65.1891 480.691 63.4319 480.691 61.6015C480.691 59.8444 480.947 58.1238 481.46 56.4398C481.972 54.7559 482.741 53.2366 483.766 51.8822C484.791 50.5277 486.109 49.4477 487.72 48.6424C489.367 47.8004 491.326 47.3794 493.595 47.3794C495.719 47.3794 497.567 47.7455 499.142 48.4776C500.716 49.1732 502.015 50.1616 503.04 51.4429C504.065 52.6875 504.834 54.1518 505.347 55.8358C505.896 57.5198 506.17 59.3135 506.17 61.2172C506.17 61.4734 506.152 61.8395 506.115 62.3154C506.115 62.7547 506.079 63.2306 506.005 63.7431H487.5C487.683 65.6833 488.397 67.1476 489.642 68.136C490.923 69.1244 492.515 69.6187 494.419 69.6187C495.81 69.6187 497.165 69.3807 498.483 68.9048C499.8 68.3923 500.972 67.6784 501.997 66.7632L505.401 71.3758C504.12 72.3642 502.912 73.1696 501.777 73.7919C500.642 74.4143 499.453 74.8536 498.208 75.1098C497 75.4027 495.609 75.5491 494.035 75.5491ZM499.416 60.3386C499.489 60.0457 499.544 59.7528 499.581 59.46C499.654 59.1671 499.691 58.8926 499.691 58.6363C499.691 57.8675 499.544 57.1537 499.251 56.4947C498.958 55.7992 498.556 55.1952 498.043 54.6827C497.531 54.1701 496.908 53.7858 496.176 53.5295C495.481 53.2366 494.675 53.0902 493.76 53.0902C492.406 53.0902 491.271 53.3648 490.356 53.9139C489.44 54.463 488.745 55.1769 488.269 56.0554C487.83 56.8974 487.555 57.776 487.445 58.6912H501.722L499.416 60.3386Z" fill="black"/>
<path d="M472.986 75.5492C471.119 75.5492 469.581 74.9817 468.373 73.8469C467.165 72.7121 466.561 70.9183 466.561 68.4656V36.7266H473.315V67.1477C473.315 67.9164 473.498 68.4656 473.865 68.795C474.231 69.0879 474.707 69.2343 475.292 69.2343C475.585 69.2343 475.896 69.216 476.226 69.1794C476.555 69.1062 476.903 69.0147 477.269 68.9048V74.7255C476.5 75.0184 475.732 75.2197 474.963 75.3295C474.231 75.476 473.572 75.5492 472.986 75.5492Z" fill="black"/>
<path d="M431.259 75L422.913 47.9285H430.161L434.719 64.5667L439.606 47.9285H445.482L450.369 64.4569L454.981 47.9285H462.285L453.883 75H447.788L442.571 57.5929L437.464 75H431.259Z" fill="black"/>
<path d="M406.688 75.5491C404.052 75.5491 401.709 74.9451 399.659 73.737C397.609 72.529 395.98 70.8633 394.772 68.7401C393.6 66.5802 393.015 64.1458 393.015 61.4368C393.015 58.6912 393.6 56.2751 394.772 54.1884C395.943 52.0652 397.554 50.3995 399.604 49.1915C401.691 47.9834 404.052 47.3794 406.688 47.3794C409.287 47.3794 411.611 47.9834 413.661 49.1915C415.712 50.3995 417.322 52.0652 418.494 54.1884C419.665 56.2751 420.251 58.6912 420.251 61.4368C420.251 64.1458 419.665 66.5619 418.494 68.6852C417.322 70.8084 415.712 72.4924 413.661 73.737C411.611 74.9451 409.287 75.5491 406.688 75.5491ZM406.688 69.5637C408.079 69.5637 409.269 69.2343 410.257 68.5753C411.282 67.9164 412.051 66.9829 412.563 65.7748C413.112 64.5668 413.387 63.1208 413.387 61.4368C413.387 59.7162 413.112 58.2702 412.563 57.0988C412.051 55.8907 411.282 54.9755 410.257 54.3532C409.269 53.6942 408.079 53.3648 406.688 53.3648C405.26 53.3648 404.034 53.6942 403.009 54.3532C401.984 54.9755 401.197 55.8907 400.647 57.0988C400.098 58.2702 399.824 59.7162 399.824 61.4368C399.824 63.1208 400.098 64.5668 400.647 65.7748C401.197 66.9829 401.984 67.9164 403.009 68.5753C404.034 69.2343 405.26 69.5637 406.688 69.5637Z" fill="black"/>
<path d="M363.282 75V47.9285H370.146V54.0786L369.048 54.1884C369.524 52.5411 370.22 51.2232 371.135 50.2348C372.05 49.2464 373.112 48.5325 374.32 48.0932C375.528 47.6173 376.772 47.3794 378.054 47.3794C381.129 47.3794 383.527 48.258 385.247 50.0152C387.004 51.7357 387.883 54.1701 387.883 57.3184V75H381.019V59.8444C381.019 57.5747 380.616 55.9273 379.811 54.9023C379.006 53.8407 377.743 53.3099 376.022 53.3099C374.704 53.3099 373.606 53.621 372.727 54.2434C371.885 54.8291 371.245 55.7626 370.805 57.0439C370.366 58.3251 370.146 59.9908 370.146 62.0408V75H363.282Z" fill="black"/>
<path d="M332.857 63.4686V54.4631L349.66 36.7266H359.214L332.857 63.4686ZM327.201 75V36.7266H334.284V75H327.201ZM350.923 75L338.842 55.726L344.114 50.784L359.324 75H350.923Z" fill="black"/>
<path d="M281.612 75V47.9285H288.476V54.0786L287.378 54.1884C287.854 52.5411 288.549 51.2232 289.464 50.2348C290.38 49.2464 291.441 48.5325 292.649 48.0932C293.857 47.6173 295.102 47.3794 296.383 47.3794C299.458 47.3794 301.856 48.258 303.577 50.0152C305.334 51.7357 306.213 54.1701 306.213 57.3184V75H299.349V59.8444C299.349 57.5747 298.946 55.9273 298.14 54.9023C297.335 53.8407 296.072 53.3099 294.352 53.3099C293.034 53.3099 291.935 53.621 291.057 54.2434C290.215 54.8291 289.574 55.7626 289.135 57.0439C288.696 58.3251 288.476 59.9908 288.476 62.0408V75H281.612Z" fill="black"/>
<path d="M263.984 75.5491C261.642 75.5491 259.628 75.1647 257.944 74.396C256.26 73.6272 254.869 72.6022 253.771 71.3209C252.709 70.003 251.922 68.5204 251.41 66.8731C250.897 65.1891 250.641 63.4319 250.641 61.6015C250.641 59.8444 250.897 58.1238 251.41 56.4398C251.922 54.7559 252.691 53.2366 253.716 51.8822C254.741 50.5277 256.059 49.4477 257.67 48.6424C259.317 47.8004 261.275 47.3794 263.545 47.3794C265.668 47.3794 267.517 47.7455 269.091 48.4776C270.665 49.1732 271.965 50.1616 272.99 51.4429C274.015 52.6875 274.784 54.1518 275.296 55.8358C275.845 57.5198 276.12 59.3135 276.12 61.2172C276.12 61.4734 276.102 61.8395 276.065 62.3154C276.065 62.7547 276.028 63.2306 275.955 63.7431H257.45C257.633 65.6833 258.347 67.1476 259.591 68.136C260.873 69.1244 262.465 69.6187 264.369 69.6187C265.76 69.6187 267.114 69.3807 268.432 68.9048C269.75 68.3923 270.922 67.6784 271.947 66.7632L275.351 71.3758C274.07 72.3642 272.862 73.1696 271.727 73.7919C270.592 74.4143 269.402 74.8536 268.158 75.1098C266.95 75.4027 265.559 75.5491 263.984 75.5491ZM269.366 60.3386C269.439 60.0457 269.494 59.7528 269.531 59.46C269.604 59.1671 269.64 58.8926 269.64 58.6363C269.64 57.8675 269.494 57.1537 269.201 56.4947C268.908 55.7992 268.505 55.1952 267.993 54.6827C267.48 54.1701 266.858 53.7858 266.126 53.5295C265.43 53.2366 264.625 53.0902 263.71 53.0902C262.355 53.0902 261.221 53.3648 260.305 53.9139C259.39 54.463 258.695 55.1769 258.219 56.0554C257.779 56.8974 257.505 57.776 257.395 58.6912H271.672L269.366 60.3386Z" fill="black"/>
<path d="M220.373 86.202V47.9285H227.182V55.1769L225.534 55.726C226.01 53.5661 226.724 51.8822 227.676 50.6741C228.664 49.466 229.781 48.6241 231.025 48.1482C232.27 47.6356 233.57 47.3794 234.924 47.3794C237.304 47.3794 239.354 48.0017 241.074 49.2464C242.831 50.4545 244.168 52.1201 245.083 54.2434C245.998 56.3666 246.456 58.7827 246.456 61.4917C246.456 64.4203 245.943 66.9463 244.918 69.0695C243.893 71.1562 242.502 72.7669 240.745 73.9018C238.988 75 237.047 75.5491 234.924 75.5491C233.496 75.5491 232.142 75.2563 230.861 74.6705C229.579 74.0848 228.481 73.2062 227.566 72.0348C226.687 70.8267 226.083 69.3075 225.754 67.4771L227.182 67.6967V86.202H220.373ZM233.057 69.2892C234.412 69.2892 235.565 68.978 236.517 68.3557C237.505 67.6967 238.274 66.7815 238.823 65.6101C239.372 64.4386 239.647 63.0658 239.647 61.4917C239.647 59.881 239.372 58.4899 238.823 57.3184C238.274 56.147 237.505 55.2501 236.517 54.6277C235.565 53.9688 234.412 53.6393 233.057 53.6393C231.739 53.6393 230.586 53.9688 229.598 54.6277C228.646 55.2867 227.895 56.2019 227.346 57.3733C226.834 58.5082 226.578 59.881 226.578 61.4917C226.578 63.0658 226.834 64.4386 227.346 65.6101C227.895 66.7815 228.646 67.6967 229.598 68.3557C230.586 68.978 231.739 69.2892 233.057 69.2892Z" fill="black"/>
<path d="M196.482 75.8786C192.858 75.8786 189.655 75.0549 186.873 73.4075C184.127 71.7236 181.985 69.3807 180.448 66.3788C178.91 63.377 178.142 59.8809 178.142 55.8907C178.142 51.8638 178.91 48.3495 180.448 45.3476C181.985 42.3458 184.127 40.0212 186.873 38.3738C189.655 36.6899 192.858 35.8479 196.482 35.8479C200.143 35.8479 203.346 36.6899 206.092 38.3738C208.874 40.0212 211.034 42.3458 212.571 45.3476C214.109 48.3495 214.878 51.8638 214.878 55.8907C214.878 59.8809 214.09 63.377 212.516 66.3788C210.979 69.3807 208.819 71.7236 206.037 73.4075C203.291 75.0549 200.106 75.8786 196.482 75.8786ZM196.427 69.0695C198.77 69.0695 200.765 68.5387 202.413 67.4771C204.097 66.3788 205.396 64.8413 206.311 62.8645C207.227 60.8877 207.684 58.5631 207.684 55.8907C207.684 53.1817 207.227 50.8388 206.311 48.862C205.396 46.8852 204.097 45.3659 202.413 44.3043C200.765 43.2061 198.77 42.657 196.427 42.657C194.194 42.657 192.217 43.1878 190.497 44.2494C188.813 45.311 187.513 46.8303 186.598 48.8071C185.719 50.7839 185.28 53.1451 185.28 55.8907C185.28 58.5997 185.719 60.9426 186.598 62.9194C187.513 64.8962 188.813 66.4154 190.497 67.4771C192.217 68.5387 194.194 69.0695 196.427 69.0695Z" fill="black"/>
</svg>
